<svg width="427" height="422" viewBox="0 0 427 422" fill="none" xmlns="http://www.w3.org/2000/svg">
<g filter="url(#filter0_d_258_3)">
<mask id="path-1-outside-1_258_3" maskUnits="userSpaceOnUse" x="-2.40341" y="-2.80567" width="432.207" height="427.732" fill="black">
<rect fill="white" x="-2.40341" y="-2.80567" width="432.207" height="427.732"/>
<path fill-rule="evenodd" clip-rule="evenodd" d="M277.621 80.1296C277.282 80.5681 276.776 80.8461 276.224 80.8973L103.687 96.9057C102.587 97.0078 101.778 97.9821 101.88 99.082L106.225 145.915C106.327 147.015 107.302 147.824 108.402 147.722L229.788 136.459C231.529 136.298 232.624 138.291 231.554 139.674L103.088 305.726C102.412 306.599 102.573 307.856 103.446 308.531L144.84 340.556C145.713 341.232 146.97 341.071 147.645 340.198L277.374 172.515C278.444 171.132 280.649 171.691 280.93 173.417L300.999 296.726C301.176 297.816 302.204 298.556 303.294 298.379L349.718 290.823C350.808 290.646 351.548 289.618 351.37 288.528L322.952 113.921C322.924 113.753 322.968 113.581 323.072 113.446V113.446C323.28 113.178 323.231 112.792 322.962 112.584L322.839 112.489C322.751 112.421 322.691 112.321 322.674 112.211L322.667 112.171C322.632 111.953 322.426 111.805 322.208 111.84V111.84C322.099 111.858 321.987 111.83 321.899 111.762L282.189 81.0399C282.101 80.972 282.046 80.8707 282.035 80.7602V80.7602C282.015 80.54 281.82 80.3781 281.6 80.3985L281.559 80.4023C281.448 80.4127 281.336 80.3803 281.248 80.3119L280.473 79.7123C279.599 79.0364 278.343 79.1967 277.667 80.0703L277.621 80.1296Z"/>
</mask>
<path d="M281.559 80.4023L281.374 78.4109L281.559 80.4023ZM281.6 80.3985L281.415 78.4071L281.6 80.3985ZM282.035 80.7602L284.027 80.5755L282.035 80.7602ZM322.667 112.171L324.641 111.849L322.667 112.171ZM322.674 112.211L324.648 111.89L322.674 112.211ZM322.952 113.921L324.926 113.6L322.952 113.921ZM349.718 290.823L349.396 288.849L349.718 290.823ZM351.37 288.528L353.344 288.206L351.37 288.528ZM300.999 296.726L299.025 297.047L300.999 296.726ZM303.294 298.379L302.973 296.405L303.294 298.379ZM280.93 173.417L278.956 173.739L280.93 173.417ZM144.84 340.556L146.064 338.974L144.84 340.556ZM103.446 308.531L102.222 310.113L103.446 308.531ZM229.788 136.459L229.603 134.468L229.788 136.459ZM106.225 145.915L108.217 145.73L106.225 145.915ZM108.402 147.722L108.586 149.713L108.402 147.722ZM103.687 96.9057L103.872 98.8972L103.872 98.8972L103.687 96.9057ZM101.88 99.082L99.8886 99.2667L101.88 99.082ZM276.224 80.8973L276.409 82.8887L276.224 80.8973ZM276.039 78.9058L103.502 94.9143L103.872 98.8972L276.409 82.8887L276.039 78.9058ZM99.8886 99.2667L104.234 146.1L108.217 145.73L103.872 98.8972L99.8886 99.2667ZM108.586 149.713L229.972 138.451L229.603 134.468L108.217 145.73L108.586 149.713ZM104.67 306.95L233.136 140.898L229.972 138.451L101.506 304.502L104.67 306.95ZM146.064 338.974L104.67 306.95L102.222 310.113L143.616 342.137L146.064 338.974ZM275.792 171.291L146.064 338.974L149.227 341.421L278.956 173.739L275.792 171.291ZM302.973 296.405L282.904 173.096L278.956 173.739L299.025 297.047L302.973 296.405ZM349.396 288.849L302.973 296.405L303.616 300.353L350.039 292.797L349.396 288.849ZM320.978 114.242L349.396 288.849L353.344 288.206L324.926 113.6L320.978 114.242ZM321.615 114.071L321.739 114.166L324.186 111.002L324.063 110.907L321.615 114.071ZM320.693 112.492L320.7 112.532L324.648 111.89L324.641 111.849L320.693 112.492ZM280.965 82.6218L320.675 113.344L323.123 110.18L283.413 79.4581L280.965 82.6218ZM281.415 78.4071L281.374 78.4109L281.744 82.3938L281.784 82.39L281.415 78.4071ZM279.249 81.2942L280.024 81.8938L282.472 78.7301L281.697 78.1304L279.249 81.2942ZM279.203 81.3535L279.249 81.2942L276.085 78.8465L276.039 78.9058L279.203 81.3535ZM281.697 78.1304C279.949 76.7786 277.437 77.0993 276.085 78.8465L279.249 81.2942L279.249 81.2942L281.697 78.1304ZM281.374 78.4109C281.767 78.3744 282.16 78.4885 282.472 78.7301L280.024 81.8938C280.513 82.2722 281.128 82.4509 281.744 82.3938L281.374 78.4109ZM284.027 80.5755C283.904 79.2554 282.735 78.2846 281.415 78.4071L281.784 82.39C280.905 82.4716 280.125 81.8247 280.044 80.945L284.027 80.5755ZM283.413 79.4581C283.763 79.7294 283.986 80.134 284.027 80.5755L280.044 80.945C280.105 81.6075 280.439 82.2147 280.965 82.6218L283.413 79.4581ZM321.887 109.866C322.325 109.795 322.772 109.909 323.123 110.18L320.675 113.344C321.202 113.751 321.873 113.921 322.529 113.814L321.887 109.866ZM324.641 111.849C324.428 110.541 323.195 109.653 321.887 109.866L322.529 113.814C321.657 113.956 320.835 113.364 320.693 112.492L324.641 111.849ZM324.063 110.907C324.375 111.149 324.584 111.5 324.648 111.89L320.7 112.532C320.799 113.143 321.126 113.692 321.615 114.071L324.063 110.907ZM324.654 114.67C325.538 113.528 325.328 111.886 324.186 111.002L321.739 114.166C321.133 113.698 321.022 112.828 321.49 112.222L324.654 114.67ZM324.926 113.6C324.988 113.979 324.889 114.366 324.654 114.67L321.49 112.222C321.047 112.796 320.861 113.527 320.978 114.242L324.926 113.6ZM350.039 292.797C352.219 292.442 353.699 290.387 353.344 288.206L349.396 288.849L349.396 288.849L350.039 292.797ZM299.025 297.047C299.38 299.228 301.435 300.708 303.616 300.353L302.973 296.405L302.973 296.405L299.025 297.047ZM278.956 173.739L278.956 173.739L282.904 173.096C282.342 169.644 277.932 168.525 275.792 171.291L278.956 173.739ZM143.616 342.137C145.363 343.489 147.876 343.169 149.227 341.421L146.064 338.974L146.064 338.974L143.616 342.137ZM101.506 304.502C100.155 306.249 100.475 308.761 102.222 310.113L104.67 306.95L104.67 306.95L101.506 304.502ZM229.972 138.451L229.972 138.451L233.136 140.898C235.276 138.132 233.086 134.145 229.603 134.468L229.972 138.451ZM104.234 146.1C104.438 148.299 106.387 149.917 108.586 149.713L108.217 145.73L108.217 145.73L104.234 146.1ZM103.502 94.9143C101.302 95.1184 99.6845 97.067 99.8886 99.2667L103.872 98.8972L103.872 98.8972L103.502 94.9143ZM276.409 82.8887C277.513 82.7863 278.525 82.2303 279.203 81.3535L276.039 78.9058L276.039 78.9058L276.409 82.8887Z" fill="#04B5E6" mask="url(#path-1-outside-1_258_3)"/>
</g>
<defs>
<filter id="filter0_d_258_3" x="93.8711" y="71.2939" width="265.526" height="277.68" filterUnits="userSpaceOnUse" color-interpolation-filters="sRGB">
<feFlood flood-opacity="0" result="BackgroundImageFix"/>
<feColorMatrix in="SourceAlpha" type="matrix" values="0 0 0 0 0 0 0 0 0 0 0 0 0 0 0 0 0 0 127 0" result="hardAlpha"/>
<feOffset/>
<feGaussianBlur stdDeviation="3"/>
<feColorMatrix type="matrix" values="0 0 0 0 0 0 0 0 0 0.819608 0 0 0 0 1 0 0 0 1 0"/>
<feBlend mode="normal" in2="BackgroundImageFix" result="effect1_dropShadow_258_3"/>
<feBlend mode="normal" in="SourceGraphic" in2="effect1_dropShadow_258_3" result="shape"/>
</filter>
</defs>
</svg>
