<svg width="143" height="142" viewBox="0 0 143 142" fill="none" xmlns="http://www.w3.org/2000/svg">
<g filter="url(#filter0_d_258_3)">
<mask id="path-1-outside-1_258_3" maskUnits="userSpaceOnUse" x="-3.2915" y="-2.51002" width="148.626" height="147.373" fill="black">
<rect fill="white" x="-3.2915" y="-2.51002" width="148.626" height="147.373"/>
<path fill-rule="evenodd" clip-rule="evenodd" d="M92.5363 26.848C92.4195 26.999 92.2452 27.0948 92.0551 27.1124L35.476 32.362C34.3761 32.464 33.5673 33.4383 33.6693 34.5382L34.8822 47.611C34.9843 48.7109 35.9586 49.5197 37.0585 49.4177L73.432 46.0429C75.1734 45.8813 76.2688 47.8749 75.1987 49.2581L34.7649 101.522C34.089 102.395 34.2493 103.651 35.1229 104.327L46.9143 113.45C47.7879 114.126 49.044 113.965 49.7199 113.092L90.5775 60.2805C91.6476 58.8973 93.8524 59.4569 94.1334 61.183L100.165 98.2404C100.342 99.3307 101.37 100.071 102.46 99.8932L115.419 97.7841C116.509 97.6067 117.249 96.579 117.071 95.4888L107.746 38.1955C107.737 38.1391 107.752 38.0814 107.787 38.0363V38.0363C107.856 37.9462 107.84 37.8168 107.75 37.7471L107.708 37.7151C107.679 37.6922 107.659 37.6588 107.653 37.6218L107.651 37.6083C107.639 37.5351 107.57 37.4854 107.497 37.4973V37.4973C107.46 37.5033 107.422 37.4938 107.393 37.471L94.065 27.1598C94.0355 27.137 94.0168 27.1029 94.0134 27.0658V27.0658C94.0065 26.9918 93.941 26.9374 93.867 26.9443L93.8533 26.9456C93.8159 26.949 93.7786 26.9382 93.7489 26.9152L93.5026 26.7247C93.2017 26.4919 92.7691 26.5471 92.5363 26.848V26.848Z"/>
</mask>
<path d="M93.8533 26.9456L94.0381 28.937L93.8533 26.9456ZM93.867 26.9443L93.6822 24.9528L93.867 26.9443ZM94.0134 27.0658L96.0048 26.881L94.0134 27.0658ZM107.651 37.6083L109.625 37.287L107.651 37.6083ZM107.653 37.6218L109.627 37.3005L107.653 37.6218ZM107.746 38.1955L109.72 37.8742L107.746 38.1955ZM115.419 97.7841L115.74 99.7581L115.419 97.7841ZM117.071 95.4888L115.097 95.8101L117.071 95.4888ZM100.165 98.2404L98.1907 98.5617L100.165 98.2404ZM102.46 99.8932L102.139 97.9192L102.46 99.8932ZM73.432 46.0429L73.2473 44.0514L73.432 46.0429ZM35.476 32.362L35.2912 30.3705L35.476 32.362ZM33.6693 34.5382L35.6607 34.3534L33.6693 34.5382ZM92.0551 27.1124L92.2399 29.1038L92.0551 27.1124ZM91.8704 25.121L35.2912 30.3705L35.6608 34.3534L92.2399 29.1038L91.8704 25.121ZM31.6779 34.7229L32.8908 47.7958L36.8737 47.4263L35.6607 34.3534L31.6779 34.7229ZM37.2432 51.4091L73.6168 48.0343L73.2473 44.0514L36.8737 47.4263L37.2432 51.4091ZM36.3467 102.745L76.7805 50.4819L73.6168 48.0343L33.183 100.298L36.3467 102.745ZM48.1381 111.868L36.3467 102.745L33.8991 105.909L45.6904 115.032L48.1381 111.868ZM88.9956 59.0566L48.1381 111.868L51.3018 114.315L92.1593 61.5043L88.9956 59.0566ZM102.139 97.9192L96.1074 60.8617L92.1593 61.5043L98.1907 98.5617L102.139 97.9192ZM115.097 95.8101L102.139 97.9192L102.781 101.867L115.74 99.7581L115.097 95.8101ZM105.772 38.5168L115.097 95.8101L119.045 95.1675L109.72 37.8742L105.772 38.5168ZM106.485 39.297L106.526 39.329L108.974 36.1652L108.932 36.1332L106.485 39.297ZM105.677 37.9296L105.679 37.9431L109.627 37.3005L109.625 37.287L105.677 37.9296ZM92.8412 28.7417L106.169 39.0529L108.617 35.8892L95.2888 25.5779L92.8412 28.7417ZM93.6822 24.9528L93.6685 24.9541L94.0381 28.937L94.0518 28.9357L93.6822 24.9528ZM92.2788 28.3066L92.5251 28.4971L94.9727 25.3333L94.7265 25.1428L92.2788 28.3066ZM94.7265 25.1428C93.5519 24.2341 91.8631 24.4497 90.9545 25.6242L94.1182 28.0718C93.6751 28.6446 92.8516 28.7497 92.2788 28.3066L94.7265 25.1428ZM93.6685 24.9541C94.1356 24.9108 94.6017 25.0463 94.9727 25.3333L92.5251 28.4971C92.9555 28.83 93.4962 28.9873 94.0381 28.937L93.6685 24.9541ZM96.0048 26.881C95.8959 25.7072 94.8561 24.8439 93.6822 24.9528L94.0518 28.9357C93.0259 29.0309 92.1171 28.2765 92.022 27.2506L96.0048 26.881ZM95.2888 25.5779C95.6978 25.8943 95.9571 26.3662 96.0048 26.881L92.022 27.2506C92.0766 27.8397 92.3733 28.3796 92.8412 28.7417L95.2888 25.5779ZM107.175 35.5233C107.686 35.4403 108.208 35.5727 108.617 35.8892L106.169 39.0529C106.637 39.4149 107.234 39.5664 107.818 39.4714L107.175 35.5233ZM109.625 37.287C109.435 36.1236 108.339 35.334 107.175 35.5233L107.818 39.4714C106.801 39.6369 105.842 38.9466 105.677 37.9296L109.625 37.287ZM108.932 36.1332C109.303 36.4203 109.552 36.8375 109.627 37.3005L105.679 37.9431C105.766 38.4802 106.054 38.964 106.485 39.297L108.932 36.1332ZM109.369 39.2601C110.114 38.2964 109.937 36.9108 108.974 36.1652L106.526 39.329C105.742 38.7227 105.599 37.596 106.205 36.8124L109.369 39.2601ZM109.72 37.8742C109.8 38.3649 109.673 38.8668 109.369 39.2601L106.205 36.8124C105.831 37.2961 105.674 37.9133 105.772 38.5168L109.72 37.8742ZM115.74 99.7581C117.92 99.4032 119.4 97.3479 119.045 95.1675L115.097 95.8101L115.097 95.8101L115.74 99.7581ZM98.1907 98.5617C98.5456 100.742 100.601 102.222 102.781 101.867L102.139 97.9192L102.139 97.9192L98.1907 98.5617ZM92.1593 61.5043L92.1593 61.5043L96.1074 60.8617C95.5455 57.4095 91.1358 56.2903 88.9956 59.0566L92.1593 61.5043ZM45.6904 115.032C47.4377 116.383 49.95 116.063 51.3018 114.315L48.1381 111.868L48.1381 111.868L45.6904 115.032ZM33.183 100.298C31.8312 102.045 32.1518 104.557 33.8991 105.909L36.3467 102.745L36.3467 102.745L33.183 100.298ZM73.6168 48.0343L73.6168 48.0343L76.7805 50.4819C78.9207 47.7156 76.7299 43.7283 73.2473 44.0514L73.6168 48.0343ZM32.8908 47.7958C33.0949 49.9955 35.0435 51.6132 37.2432 51.4091L36.8737 47.4263L36.8737 47.4263L32.8908 47.7958ZM35.2912 30.3705C33.0915 30.5746 31.4738 32.5233 31.6779 34.7229L35.6607 34.3534L35.6608 34.3534L35.2912 30.3705ZM92.2399 29.1038C92.982 29.035 93.6622 28.6613 94.1182 28.0718L90.9545 25.6242C91.1768 25.3368 91.5085 25.1545 91.8704 25.121L92.2399 29.1038Z" fill="#04B5E6" mask="url(#path-1-outside-1_258_3)"/>
</g>
<defs>
<filter id="filter0_d_258_3" x="25.6606" y="18.5806" width="99.437" height="103.287" filterUnits="userSpaceOnUse" color-interpolation-filters="sRGB">
<feFlood flood-opacity="0" result="BackgroundImageFix"/>
<feColorMatrix in="SourceAlpha" type="matrix" values="0 0 0 0 0 0 0 0 0 0 0 0 0 0 0 0 0 0 127 0" result="hardAlpha"/>
<feOffset/>
<feGaussianBlur stdDeviation="3"/>
<feColorMatrix type="matrix" values="0 0 0 0 0 0 0 0 0 0.819608 0 0 0 0 1 0 0 0 1 0"/>
<feBlend mode="normal" in2="BackgroundImageFix" result="effect1_dropShadow_258_3"/>
<feBlend mode="normal" in="SourceGraphic" in2="effect1_dropShadow_258_3" result="shape"/>
</filter>
</defs>
</svg>
