<svg width="122" height="111" viewBox="0 0 122 111" fill="none" xmlns="http://www.w3.org/2000/svg">
<path d="M74.7076 42.4895L63.89 3.6493C63.0748 0.722521 58.9252 0.72251 58.11 3.6493L47.2924 42.4895C47.193 42.8462 46.9046 43.1189 46.5428 43.1981L3.71517 52.5693C0.570197 53.2575 0.57019 57.7425 3.71517 58.4307L46.5428 67.8019C46.9046 67.8811 47.193 68.1538 47.2924 68.5105L58.11 107.351C58.9252 110.277 63.0748 110.277 63.89 107.351L74.7076 68.5105C74.807 68.1538 75.0954 67.8811 75.4572 67.8019L118.285 58.4307C121.43 57.7425 121.43 53.2575 118.285 52.5693L75.4572 43.1981C75.0954 43.1189 74.807 42.8462 74.7076 42.4895Z" stroke="#333333" stroke-width="2"/>
</svg>
