<svg width="110" height="102" viewBox="0 0 110 102" fill="none" xmlns="http://www.w3.org/2000/svg">
<mask id="path-1-outside-1_258_4" maskUnits="userSpaceOnUse" x="0.829102" y="0.0883179" width="109" height="102" fill="black">
<rect fill="white" x="0.829102" y="0.0883179" width="109" height="102"/>
<path fill-rule="evenodd" clip-rule="evenodd" d="M45.2211 2.86262C45.2211 3.05354 45.1419 3.2359 45.0023 3.36618L3.46439 42.1393C2.65693 42.893 2.61336 44.1586 3.36708 44.9661L12.3258 54.5636C13.0795 55.3711 14.3451 55.4146 15.1525 54.6609L41.8564 29.7344C43.1348 28.5411 45.2211 29.4477 45.2211 31.1965V97.2749C45.2211 98.3795 46.1166 99.2749 47.2211 99.2749H62.1293C63.2339 99.2749 64.1293 98.3795 64.1293 97.2749V30.504C64.1293 28.7552 66.2157 27.8486 67.4941 29.042L94.9401 54.6612C95.7476 55.4149 97.0132 55.3714 97.7669 54.5639L106.726 44.9664C107.479 44.1589 107.436 42.8933 106.628 42.1396L64.1948 2.53056C64.1531 2.49158 64.1293 2.43702 64.1293 2.37989V2.37989C64.1293 2.26606 64.0371 2.17378 63.9232 2.17378H63.8709C63.8334 2.17378 63.7973 2.15956 63.7699 2.13398L63.7599 2.12461C63.7057 2.07402 63.6208 2.07694 63.5702 2.13114V2.13114C63.5448 2.15834 63.5092 2.17378 63.472 2.17378H46.621C46.5837 2.17378 46.5481 2.15831 46.5227 2.13105V2.13105C46.472 2.07674 46.3869 2.07381 46.3325 2.12451L46.3225 2.13389C46.295 2.15953 46.2589 2.17378 46.2213 2.17378H45.91C45.5295 2.17378 45.2211 2.48219 45.2211 2.86262V2.86262Z"/>
</mask>
<path fill-rule="evenodd" clip-rule="evenodd" d="M45.2211 2.86262C45.2211 3.05354 45.1419 3.2359 45.0023 3.36618L3.46439 42.1393C2.65693 42.893 2.61336 44.1586 3.36708 44.9661L12.3258 54.5636C13.0795 55.3711 14.3451 55.4146 15.1525 54.6609L41.8564 29.7344C43.1348 28.5411 45.2211 29.4477 45.2211 31.1965V97.2749C45.2211 98.3795 46.1166 99.2749 47.2211 99.2749H62.1293C63.2339 99.2749 64.1293 98.3795 64.1293 97.2749V30.504C64.1293 28.7552 66.2157 27.8486 67.4941 29.042L94.9401 54.6612C95.7476 55.4149 97.0132 55.3714 97.7669 54.5639L106.726 44.9664C107.479 44.1589 107.436 42.8933 106.628 42.1396L64.1948 2.53056C64.1531 2.49158 64.1293 2.43702 64.1293 2.37989V2.37989C64.1293 2.26606 64.0371 2.17378 63.9232 2.17378H63.8709C63.8334 2.17378 63.7973 2.15956 63.7699 2.13398L63.7599 2.12461C63.7057 2.07402 63.6208 2.07694 63.5702 2.13114V2.13114C63.5448 2.15834 63.5092 2.17378 63.472 2.17378H46.621C46.5837 2.17378 46.5481 2.15831 46.5227 2.13105V2.13105C46.472 2.07674 46.3869 2.07381 46.3325 2.12451L46.3225 2.13389C46.295 2.15953 46.2589 2.17378 46.2213 2.17378H45.91C45.5295 2.17378 45.2211 2.48219 45.2211 2.86262V2.86262Z" fill="#333333"/>
<path d="M46.3225 2.13389L47.6872 3.59592L46.3225 2.13389ZM46.3325 2.12451L44.9678 0.662477L46.3325 2.12451ZM46.5227 2.13105L47.9847 0.766323L46.5227 2.13105ZM63.7599 2.12461L62.3952 3.58664L63.7599 2.12461ZM63.7699 2.13398L62.4052 3.59601L63.7699 2.13398ZM64.1948 2.53056L65.5595 1.06853L64.1948 2.53056ZM106.726 44.9664L105.264 43.6017L106.726 44.9664ZM106.628 42.1396L107.993 40.6776L106.628 42.1396ZM94.9401 54.6612L96.3049 53.1992L94.9401 54.6612ZM97.7669 54.5639L96.3049 53.1992L97.7669 54.5639ZM41.8564 29.7344L40.4917 28.2724L41.8564 29.7344ZM3.46439 42.1393L2.09967 40.6773L3.46439 42.1393ZM3.36708 44.9661L4.82911 43.6014L3.36708 44.9661ZM45.0023 3.36618L46.3671 4.82821L45.0023 3.36618ZM43.6376 1.90414L2.09967 40.6773L4.82911 43.6014L46.3671 4.82821L43.6376 1.90414ZM1.90504 46.3308L10.8637 55.9283L13.7878 53.1989L4.82911 43.6014L1.90504 46.3308ZM16.5172 56.1229L43.2211 31.1965L40.4917 28.2724L13.7878 53.1989L16.5172 56.1229ZM47.2211 97.2749V31.1965H43.2211V97.2749H47.2211ZM62.1293 97.2749H47.2211V101.275H62.1293V97.2749ZM62.1293 30.504V97.2749H66.1293V30.504H62.1293ZM96.3049 53.1992L68.8588 27.5799L66.1293 30.504L93.5754 56.1232L96.3049 53.1992ZM105.264 43.6017L96.3049 53.1992L99.2289 55.9286L108.188 46.3311L105.264 43.6017ZM62.8301 3.9926L105.264 43.6017L107.993 40.6776L65.5595 1.06853L62.8301 3.9926ZM63.8709 4.17378H63.9232V0.173782H63.8709V4.17378ZM62.3952 3.58664L62.4052 3.59601L65.1347 0.671945L65.1246 0.662574L62.3952 3.58664ZM46.621 4.17378H63.472V0.173782H46.621V4.17378ZM44.9678 0.662477L44.9578 0.671866L47.6872 3.59592L47.6973 3.58653L44.9678 0.662477ZM45.91 4.17378H46.2213V0.173782H45.91V4.17378ZM45.91 0.173782C44.425 0.173782 43.2211 1.37762 43.2211 2.86262H47.2211C47.2211 3.58676 46.6341 4.17378 45.91 4.17378V0.173782ZM44.9578 0.671866C45.3007 0.351797 45.7522 0.173782 46.2213 0.173782V4.17378C46.7655 4.17378 47.2894 3.96726 47.6872 3.59592L44.9578 0.671866ZM47.9847 0.766323C47.1803 -0.0954444 45.8296 -0.141938 44.9678 0.662477L47.6973 3.58653C46.9441 4.28955 45.7637 4.24892 45.0607 3.49578L47.9847 0.766323ZM46.621 0.173782C47.1381 0.173782 47.6319 0.388365 47.9847 0.766323L45.0607 3.49578C45.4644 3.92825 46.0294 4.17378 46.621 4.17378V0.173782ZM62.1081 0.766425C62.461 0.388416 62.9549 0.173782 63.472 0.173782V4.17378C64.0636 4.17378 64.6286 3.92826 65.0322 3.49586L62.1081 0.766425ZM65.1246 0.662574C64.263 -0.14173 62.9124 -0.0952331 62.1081 0.766425L65.0322 3.49586C64.3291 4.24912 63.1485 4.28977 62.3952 3.58664L65.1246 0.662574ZM63.8709 0.173782C64.3401 0.173782 64.7917 0.351824 65.1347 0.671945L62.4052 3.59601C62.803 3.96729 63.3268 4.17378 63.8709 4.17378V0.173782ZM66.1293 2.37989C66.1293 1.16149 65.1416 0.173782 63.9232 0.173782V4.17378C62.9325 4.17378 62.1293 3.37063 62.1293 2.37989H66.1293ZM65.5595 1.06853C65.923 1.4078 66.1293 1.8827 66.1293 2.37989H62.1293C62.1293 2.99134 62.3831 3.57537 62.8301 3.9926L65.5595 1.06853ZM108.188 46.3311C109.695 44.7162 109.608 42.185 107.993 40.6776L105.264 43.6017L105.264 43.6017L108.188 46.3311ZM93.5754 56.1232C95.1903 57.6307 97.7215 57.5435 99.2289 55.9286L96.3049 53.1992L96.3049 53.1992L93.5754 56.1232ZM66.1293 30.504L66.1293 30.504L68.8588 27.5799C66.302 25.1933 62.1293 27.0064 62.1293 30.504H66.1293ZM62.1293 101.275C64.3385 101.275 66.1293 99.4841 66.1293 97.2749H62.1293L62.1293 97.2749V101.275ZM43.2211 97.2749C43.2211 99.4841 45.012 101.275 47.2211 101.275V97.2749L47.2211 97.2749H43.2211ZM43.2211 31.1965L43.2211 31.1965H47.2211C47.2211 27.6988 43.0485 25.8858 40.4917 28.2724L43.2211 31.1965ZM10.8637 55.9283C12.3712 57.5432 14.9023 57.6304 16.5172 56.1229L13.7878 53.1989L13.7878 53.1989L10.8637 55.9283ZM2.09967 40.6773C0.484755 42.1847 0.397614 44.7159 1.90504 46.3308L4.82911 43.6014L4.82911 43.6014L2.09967 40.6773ZM46.3671 4.82821C46.9118 4.31968 47.2211 3.60787 47.2211 2.86262H43.2211C43.2211 2.49922 43.372 2.15211 43.6376 1.90414L46.3671 4.82821Z" mask="url(#path-1-outside-1_258_4)"/>
</svg>
