<svg width="125" height="115" viewBox="0 0 125 115" fill="none" xmlns="http://www.w3.org/2000/svg">
<path d="M72.6987 32.981L65.4118 3.58936C64.6588 0.551913 60.3412 0.551905 59.5882 3.58936L52.3013 32.981C52.1414 33.6261 51.4082 33.9386 50.832 33.6071L22.9736 17.5789C20.1999 15.9831 17.1889 19.2581 19.0118 21.8882L36.1336 46.5921C36.5421 47.1815 36.2157 47.9966 35.5133 48.1412L4.31682 54.5616C1.12314 55.2189 1.12315 59.7811 4.31682 60.4384L35.5133 66.8588C36.2157 67.0034 36.5421 67.8185 36.1336 68.4079L19.0118 93.1118C17.1889 95.7419 20.1999 99.0169 22.9735 97.4211L50.832 81.3929C51.4082 81.0614 52.1414 81.3739 52.3013 82.019L59.5882 111.411C60.3412 114.448 64.6588 114.448 65.4118 111.411L72.6987 82.019C72.8586 81.3739 73.5918 81.0614 74.168 81.3929L102.026 97.4211C104.8 99.0169 107.811 95.7419 105.988 93.1118L88.8664 68.4079C88.4579 67.8185 88.7843 67.0034 89.4867 66.8588L120.683 60.4384C123.877 59.7811 123.877 55.2189 120.683 54.5616L89.4867 48.1412C88.7843 47.9966 88.4579 47.1815 88.8664 46.5921L105.988 21.8882C107.811 19.2581 104.8 15.9831 102.026 17.5789L74.168 33.6071C73.5918 33.9386 72.8586 33.6261 72.6987 32.981Z" fill="#333333"/>
</svg>
