<svg width="146" height="135" viewBox="0 0 146 135" fill="none" xmlns="http://www.w3.org/2000/svg">
<g filter="url(#filter0_d_258_8)">
<path d="M86.7076 54.4895L75.89 15.6493C75.0748 12.7225 70.9252 12.7225 70.11 15.6493L59.2924 54.4895C59.193 54.8462 58.9046 55.1189 58.5428 55.1981L15.7152 64.5693C12.5702 65.2575 12.5702 69.7425 15.7152 70.4307L58.5428 79.8019C58.9046 79.8811 59.193 80.1538 59.2924 80.5105L70.11 119.351C70.9252 122.277 75.0748 122.277 75.89 119.351L86.7076 80.5105C86.807 80.1538 87.0954 79.8811 87.4572 79.8019L130.285 70.4307C133.43 69.7425 133.43 65.2575 130.285 64.5693L87.4572 55.1981C87.0954 55.1189 86.807 54.8462 86.7076 54.4895Z" stroke="#F800C1" stroke-width="2"/>
</g>
<defs>
<filter id="filter0_d_258_8" x="0.356445" y="0.454224" width="145.287" height="134.092" filterUnits="userSpaceOnUse" color-interpolation-filters="sRGB">
<feFlood flood-opacity="0" result="BackgroundImageFix"/>
<feColorMatrix in="SourceAlpha" type="matrix" values="0 0 0 0 0 0 0 0 0 0 0 0 0 0 0 0 0 0 127 0" result="hardAlpha"/>
<feOffset/>
<feGaussianBlur stdDeviation="6"/>
<feColorMatrix type="matrix" values="0 0 0 0 1 0 0 0 0 0 0 0 0 0 0.78 0 0 0 1 0"/>
<feBlend mode="normal" in2="BackgroundImageFix" result="effect1_dropShadow_258_8"/>
<feBlend mode="normal" in="SourceGraphic" in2="effect1_dropShadow_258_8" result="shape"/>
</filter>
</defs>
</svg>
