<svg width="407" height="367" viewBox="0 0 407 367" fill="none" xmlns="http://www.w3.org/2000/svg">
<g filter="url(#filter0_d_258_8)">
<path d="M243.046 147.733L206.39 15.8735C205.576 12.9449 201.424 12.9448 200.61 15.8735L163.954 147.733C163.855 148.089 163.566 148.362 163.205 148.442L15.6971 180.779C12.5537 181.468 12.5538 185.951 15.6972 186.64L163.205 218.978C163.566 219.057 163.855 219.33 163.954 219.687L200.61 351.546C201.424 354.475 205.576 354.475 206.39 351.546L243.046 219.687C243.145 219.33 243.434 219.057 243.795 218.978L391.303 186.64C394.446 185.951 394.446 181.468 391.303 180.779L243.795 148.442C243.434 148.362 243.145 148.089 243.046 147.733Z" stroke="#F800C1" stroke-width="2"/>
</g>
<defs>
<filter id="filter0_d_258_8" x="0.339355" y="0.677002" width="406.321" height="366.065" filterUnits="userSpaceOnUse" color-interpolation-filters="sRGB">
<feFlood flood-opacity="0" result="BackgroundImageFix"/>
<feColorMatrix in="SourceAlpha" type="matrix" values="0 0 0 0 0 0 0 0 0 0 0 0 0 0 0 0 0 0 127 0" result="hardAlpha"/>
<feOffset/>
<feGaussianBlur stdDeviation="6"/>
<feColorMatrix type="matrix" values="0 0 0 0 1 0 0 0 0 0 0 0 0 0 0.78 0 0 0 1 0"/>
<feBlend mode="normal" in2="BackgroundImageFix" result="effect1_dropShadow_258_8"/>
<feBlend mode="normal" in="SourceGraphic" in2="effect1_dropShadow_258_8" result="shape"/>
</filter>
</defs>
</svg>
