<svg width="406" height="374" viewBox="0 0 406 374" fill="none" xmlns="http://www.w3.org/2000/svg">
<g filter="url(#filter0_d_258_2)">
<path d="M232.86 119.1L205.913 9.84325C205.162 6.80111 200.838 6.80113 200.087 9.84326L173.14 119.1C172.981 119.747 172.245 120.06 171.669 119.726L68.3564 59.9775C65.5866 58.3756 62.5684 61.6432 64.3847 64.2774L129.181 158.253C129.587 158.842 129.261 159.655 128.56 159.8L10.2646 184.272C7.07498 184.932 7.07499 189.488 10.2646 190.148L128.56 214.62C129.261 214.765 129.587 215.578 129.181 216.167L64.3847 310.142C62.5684 312.776 65.5866 316.044 68.3564 314.442L171.669 254.693C172.245 254.36 172.981 254.673 173.14 255.32L200.087 364.576C200.838 367.618 205.162 367.618 205.913 364.576L232.86 255.32C233.019 254.673 233.755 254.36 234.331 254.693L337.644 314.442C340.413 316.044 343.432 312.776 341.615 310.142L276.819 216.167C276.413 215.578 276.739 214.765 277.44 214.62L395.735 190.148C398.925 189.488 398.925 184.932 395.735 184.272L277.44 159.8C276.739 159.655 276.413 158.842 276.819 158.253L341.615 64.2774C343.432 61.6432 340.413 58.3756 337.644 59.9775L234.331 119.726C233.755 120.06 233.019 119.747 232.86 119.1Z" stroke="#7FD680" stroke-width="2"/>
</g>
<defs>
<filter id="filter0_d_258_2" x="0.872559" y="0.561646" width="404.255" height="373.296" filterUnits="userSpaceOnUse" color-interpolation-filters="sRGB">
<feFlood flood-opacity="0" result="BackgroundImageFix"/>
<feColorMatrix in="SourceAlpha" type="matrix" values="0 0 0 0 0 0 0 0 0 0 0 0 0 0 0 0 0 0 127 0" result="hardAlpha"/>
<feOffset/>
<feGaussianBlur stdDeviation="3"/>
<feColorMatrix type="matrix" values="0 0 0 0 0.145833 0 0 0 0 1 0 0 0 0 0.232925 0 0 0 1 0"/>
<feBlend mode="normal" in2="BackgroundImageFix" result="effect1_dropShadow_258_2"/>
<feBlend mode="normal" in="SourceGraphic" in2="effect1_dropShadow_258_2" result="shape"/>
</filter>
</defs>
</svg>
