<svg width="137" height="127" viewBox="0 0 137 127" fill="none" xmlns="http://www.w3.org/2000/svg">
<g filter="url(#filter0_d_258_2)">
<path d="M78.6987 38.981L71.4118 9.58936C70.6588 6.55191 66.3412 6.55191 65.5882 9.58936L58.3013 38.981C58.1414 39.6261 57.4082 39.9386 56.832 39.6071L28.9736 23.5789C26.1999 21.9831 23.1889 25.2581 25.0118 27.8882L42.1336 52.5921C42.5421 53.1815 42.2157 53.9966 41.5133 54.1412L10.3168 60.5616C7.12314 61.2189 7.12315 65.7811 10.3168 66.4384L41.5133 72.8588C42.2157 73.0034 42.5421 73.8185 42.1336 74.4079L25.0118 99.1118C23.1889 101.742 26.1999 105.017 28.9735 103.421L56.832 87.3929C57.4082 87.0614 58.1414 87.3739 58.3013 88.019L65.5882 117.411C66.3412 120.448 70.6588 120.448 71.4118 117.411L78.6987 88.019C78.8586 87.3739 79.5918 87.0614 80.168 87.3929L108.026 103.421C110.8 105.017 113.811 101.742 111.988 99.1118L94.8664 74.4079C94.4579 73.8185 94.7843 73.0034 95.4867 72.8588L126.683 66.4384C129.877 65.7811 129.877 61.2189 126.683 60.5616L95.4867 54.1412C94.7843 53.9966 94.4579 53.1815 94.8664 52.5921L111.988 27.8882C113.811 25.2581 110.8 21.9831 108.026 23.5789L80.168 39.6071C79.5918 39.9386 78.8586 39.6261 78.6987 38.981Z" stroke="#7FD680" stroke-width="2"/>
</g>
<defs>
<filter id="filter0_d_258_2" x="0.921387" y="0.311279" width="135.157" height="126.377" filterUnits="userSpaceOnUse" color-interpolation-filters="sRGB">
<feFlood flood-opacity="0" result="BackgroundImageFix"/>
<feColorMatrix in="SourceAlpha" type="matrix" values="0 0 0 0 0 0 0 0 0 0 0 0 0 0 0 0 0 0 127 0" result="hardAlpha"/>
<feOffset/>
<feGaussianBlur stdDeviation="3"/>
<feColorMatrix type="matrix" values="0 0 0 0 0.145833 0 0 0 0 1 0 0 0 0 0.232925 0 0 0 1 0"/>
<feBlend mode="normal" in2="BackgroundImageFix" result="effect1_dropShadow_258_2"/>
<feBlend mode="normal" in="SourceGraphic" in2="effect1_dropShadow_258_2" result="shape"/>
</filter>
</defs>
</svg>
